<svg width="200" height="198" xmlns="http://www.w3.org/2000/svg">

 <g>
  <title>background</title>
  <rect fill="none" id="canvas_background" height="200" width="202" y="-1" x="-1"/>
 </g>
 <g>
  <title>Layer 1</title>
  <g id="svg_1" fill="none">
   <g id="svg_2" fill="#3A3A3A">
    <g id="svg_3">
     <path id="svg_4" d="m114.95,100.45c1.16,3.08 2.3,6.2 5.73,7c0.6,-4.86 -3.8,-4.7 -5.73,-7"/>
     <path id="svg_5" d="m139.14,118.27c-0.07,3.07 4.2,5.75 1.14,7.76c-3.2,-1.7 -4.96,-8.82 -4.96,-9.03c-3.6,-6.37 -9.75,-13.6 -9.55,-21.64l0,-0.64c0.44,-4.26 -0.73,-6.9 -2.55,-8.9c0.3,3.7 -2.54,8.05 -2.54,8.26c-5.14,-1.87 -7,-7 -10.2,-10.82c-0.9,2.05 -0.6,5.34 -0.63,8.28c0.15,5.52 -2.7,9.37 -4.45,10.82c5.25,-0.48 6.12,-5.34 7.64,-9.55c8.23,10.87 18.7,19.5 22.9,34.4c-0.9,0.14 -1.06,1.03 -1.9,1.26c-6.78,0 -7.93,-5.65 -15.27,-5.1c-4.33,-5.64 -6.4,-13.55 -8.92,-21c-0.63,0.62 -2.46,2.68 -6.84,4.77c-5.78,2.78 -13.85,-0.64 -18.4,-5.15c-1.64,-1.62 -3.96,-6.1 -5.3,-7.9c1.65,13.65 12.8,20.4 29.28,17.2c3.4,6.9 7.6,13.02 13.85,17.05c1.6,1.04 6.6,3.54 10.34,2.68c2.92,-2.46 4.24,2.1 7,1.9c3.12,-3.68 5,-12.14 -0.63,-14.63"/>
     <path id="svg_6" d="m110.5,61.6c5.35,3.36 8.86,8.55 10.8,15.3c0,0.2 0.84,2.4 1.92,3.18c0,-1.28 0,-4.24 -0.63,-7.64c-2.1,-6.42 -6.13,-10.86 -10.84,-14.64c-0.2,0 -5.52,-3.2 -9.54,-3.2c-2.34,0 -9.33,0 -16.93,3c-6.42,2.53 -11.2,6.9 -15.1,12.17c-2.34,3.17 -6.95,12.94 -7.45,14.13c-1.42,5.8 -2.97,11.46 -3.2,18.46c-0.3,8.17 2.66,26.85 3.83,28.64c1.2,0.15 6.8,-1.28 8.28,-1.9c-3.73,-10.58 -5.96,-23.07 -5.88,-27.07c0.18,-9.2 2.12,-17.55 5.56,-24.06c1.1,-2.07 6.85,-9.43 7.95,-10.36c4.18,-3.54 8.98,-6.47 14.64,-8.53c5.64,-1.73 13.4,-0.33 16.55,2.54"/>
     <path id="svg_7" d="m92.03,73.7c0.15,2.83 1.73,4.22 3.82,5.1l0.64,0c2.4,0.75 3.73,0.6 4.3,0l0.14,0c0,-0.05 0,-0.1 -0.02,-0.15c1.44,-2.25 -5.37,-9.2 -8.9,-4.94"/>
     <g id="svg_8">
      <path id="svg_9" d="m171.44,52.9c2.84,9.7 15.14,14.64 16.47,21.38c-17.34,-8.73 -16.55,-22.5 -16.46,-21.37m-31.95,112.07c-8.8,5.45 -19.2,9.38 -30.46,10.32c-3.85,0.3 -7.58,0.34 -11.2,0.14c-39.86,-1.73 -71.63,-34.58 -71.63,-74.85c0,-41.4 33.56,-74.95 74.94,-74.95c41.4,0 74.94,33.55 74.94,74.94c0,27.36 -14.68,51.3 -36.6,64.37m2.02,8.4c-14.55,9.28 -31.03,10.77 -41.38,10.2c-8.63,-0.48 -19.03,-1.83 -25.46,-4.46c-12.77,-5.19 -21.67,-12.99 -28.67,-20.99c12.54,9.07 28.73,19.35 50.3,21c28,2.17 50.84,-11.55 64.3,-26.1c-3.3,8.2 -10.5,14.9 -19.1,20.38m-99.34,-134.48c4.37,-5.33 8.9,-13.58 15.58,-17.44c5.2,-3 10.97,-4.24 16.82,-4.98c6,-0.77 12.38,0 19.3,-1.25c6.3,-1.13 10.68,-4.14 16.83,-4.36c9.42,-0.34 16.3,1.2 24.3,4.36c11.13,4.4 20.72,12.96 24.9,19.3c-10.57,-10.04 -25.32,-18.73 -49.2,-16.8c-4.94,0.4 -9.7,2.22 -14.96,3.1c-4.16,0.7 -8.45,0.68 -12.46,0.63c-35.02,-0.42 -29.45,21.33 -55.9,30.28c1.5,-2.93 9.73,-6.66 14.78,-12.84m157.9,45.4c-2.3,-13.48 -14.38,-17.07 -20.36,-26.73c-4.47,-7.2 -5.4,-14.67 -9.55,-21c-2.2,-3.36 -6.86,-7 -10.82,-10.83c-11.32,-10.92 -30.02,-22.94 -50.92,-19.74c-6.6,1.02 -10.16,3.17 -16.55,4.46c-14.4,2.9 -29.85,1.8 -38.83,7.64c-5.86,3.82 -10.04,14.83 -15.92,20.37c-6.74,6.36 -14.24,8 -19.1,13.37c-3.15,3.48 -5.57,8.7 -8.9,14c-2.65,4.2 -6.74,11.23 -7,15.92c-0.5,8.5 3.56,16.4 3.8,23.56c0.2,5.26 -1.03,10.45 -0.63,15.9c0.84,11.58 6.17,29 10.82,35.02c3.73,4.83 11.68,7.3 17.18,11.46c8.42,6.36 14.48,15.48 23.55,19.1c10.94,4.37 23.77,1.94 36.3,4.46c7.36,1.48 13.68,5.1 19.73,5.73c11.5,1.16 24.88,-0.77 32.46,-5.74c8.05,-5.28 10.3,-14.96 15.92,-21.65c5.87,-6.97 16.84,-9 22.28,-19.08c2.37,-4.4 3.15,-14.05 5.73,-21.65c2.4,-7.06 7.78,-13.8 8.9,-18.46c0.75,-3.04 0.9,-8.25 1.28,-12.72c0.45,-5.02 1.14,-10.47 0.64,-13.37"/>
     </g>
    </g>
   </g>
  </g>
 </g>
</svg>